<svg preserveAspectRatio="none" width="100%" height="100%" overflow="visible" style="display: block;" viewBox="0 0 16 16" fill="none" xmlns="http://www.w3.org/2000/svg">
<g id="Icon" clip-path="url(#clip0_185_333)">
<path id="Vector" d="M14.1126 4.54023C14.465 4.18794 14.663 3.71008 14.663 3.21179C14.6631 2.71351 14.4652 2.2356 14.1129 1.88322C13.7606 1.53083 13.2828 1.33283 12.7845 1.33276C12.2862 1.3327 11.8083 1.53059 11.4559 1.88288L2.56075 10.78C2.406 10.9343 2.29155 11.1243 2.22749 11.3332L1.34704 14.2339C1.32982 14.2915 1.32852 14.3527 1.34328 14.4111C1.35804 14.4694 1.38831 14.5226 1.43089 14.5651C1.47346 14.6076 1.52675 14.6378 1.58509 14.6525C1.64343 14.6672 1.70466 14.6658 1.76227 14.6484L4.66357 13.7686C4.87229 13.7052 5.06225 13.5914 5.21676 13.4374L14.1126 4.54023Z" stroke="var(--stroke-0, #243A9F)" stroke-width="1.33301" stroke-linecap="round" stroke-linejoin="round"/>
</g>
<defs>
<clipPath id="clip0_185_333">
<rect width="15.9961" height="15.9961" fill="white"/>
</clipPath>
</defs>
</svg>
