<svg preserveAspectRatio="none" width="100%" height="100%" overflow="visible" style="display: block;" viewBox="0 0 18 12" fill="none" xmlns="http://www.w3.org/2000/svg">
<g id="Icon" clip-path="url(#clip0_183_165)">
<path id="Vector" d="M2.96875 6.9546C2.8283 6.95492 2.6906 6.92856 2.57164 6.87859C2.45268 6.82861 2.35736 6.75707 2.29673 6.67227C2.23611 6.58748 2.21267 6.49291 2.22916 6.39956C2.24564 6.3062 2.30136 6.21789 2.38984 6.14489L9.7375 1.07798C9.79262 1.0354 9.86772 1.00662 9.95049 0.99638C10.0333 0.986135 10.1188 0.995028 10.193 1.0216C10.2672 1.04817 10.3257 1.09084 10.359 1.14261C10.3922 1.19438 10.3981 1.25217 10.3758 1.30649L8.95078 4.29696C8.90876 4.37223 8.89465 4.4532 8.90966 4.53292C8.92466 4.61264 8.96834 4.68874 9.03694 4.75468C9.10554 4.82062 9.19702 4.87444 9.30352 4.91153C9.41003 4.94861 9.52839 4.96784 9.64844 4.96758H14.8438C14.9842 4.96726 15.1219 4.99362 15.2409 5.04359C15.3598 5.09357 15.4551 5.16511 15.5158 5.24991C15.5764 5.3347 15.5998 5.42927 15.5833 5.52263C15.5669 5.61598 15.5111 5.70429 15.4227 5.77729L8.075 10.8442C8.01988 10.8868 7.94478 10.9156 7.862 10.9258C7.77923 10.936 7.69372 10.9272 7.6195 10.9006C7.54527 10.874 7.48675 10.8313 7.45354 10.7796C7.42033 10.7278 7.41439 10.67 7.43672 10.6157L8.86172 7.62522C8.90374 7.54995 8.91785 7.46898 8.90284 7.38926C8.88784 7.30954 8.84416 7.23344 8.77556 7.1675C8.70696 7.10156 8.61548 7.04774 8.50897 7.01066C8.40247 6.97358 8.28411 6.95434 8.16406 6.9546H2.96875Z" stroke="var(--stroke-0, #FF6900)" stroke-width="1.66602" stroke-linecap="round" stroke-linejoin="round"/>
</g>
<defs>
<clipPath id="clip0_183_165">
<rect width="17.8125" height="11.9221" fill="white"/>
</clipPath>
</defs>
</svg>
