<svg preserveAspectRatio="none" width="100%" height="100%" overflow="visible" style="display: block;" viewBox="0 0 26 24" fill="none" xmlns="http://www.w3.org/2000/svg">
<g id="Icon">
<path id="Vector" d="M16.7005 20.2272V18.3008C16.7005 17.279 16.2606 16.299 15.4776 15.5765C14.6946 14.8539 13.6327 14.448 12.5254 14.448H6.26268C5.15537 14.448 4.09341 14.8539 3.31043 15.5765C2.52744 16.299 2.08756 17.279 2.08756 18.3008V20.2272" stroke="var(--stroke-0, #00C950)" stroke-opacity="0.3" stroke-width="1.66602" stroke-linecap="round" stroke-linejoin="round"/>
<path id="Vector_2" d="M9.39402 10.5952C11.6999 10.5952 13.5691 8.87024 13.5691 6.7424C13.5691 4.61456 11.6999 2.8896 9.39402 2.8896C7.08817 2.8896 5.2189 4.61456 5.2189 6.7424C5.2189 8.87024 7.08817 10.5952 9.39402 10.5952Z" stroke="var(--stroke-0, #00C950)" stroke-opacity="0.3" stroke-width="1.66602" stroke-linecap="round" stroke-linejoin="round"/>
<path id="Vector_3" d="M22.9632 20.2272V18.3008C22.9625 17.4471 22.6546 16.6179 22.0878 15.9432C21.5211 15.2685 20.7275 14.7866 19.8318 14.5732" stroke="var(--stroke-0, #00C950)" stroke-opacity="0.3" stroke-width="1.66602" stroke-linecap="round" stroke-linejoin="round"/>
<path id="Vector_4" d="M16.7005 3.01482C17.5986 3.22701 18.3946 3.709 18.963 4.38479C19.5315 5.06058 19.84 5.89173 19.84 6.74722C19.84 7.6027 19.5315 8.43386 18.963 9.10965C18.3946 9.78544 17.5986 10.2674 16.7005 10.4796" stroke="var(--stroke-0, #00C950)" stroke-opacity="0.3" stroke-width="1.66602" stroke-linecap="round" stroke-linejoin="round"/>
</g>
</svg>
