<svg preserveAspectRatio="none" width="100%" height="100%" overflow="visible" style="display: block;" viewBox="0 0 16 16" fill="none" xmlns="http://www.w3.org/2000/svg">
<g id="Icon" clip-path="url(#clip0_185_249)">
<path id="Vector" d="M9.99349 9.32726C10.1267 8.66102 10.4599 8.19466 10.9928 7.66168C11.6591 7.06207 11.9922 6.19596 11.9922 5.32986C11.9922 4.26969 11.571 3.25293 10.8214 2.50328C10.0717 1.75362 9.05497 1.33247 7.99479 1.33247C6.93462 1.33247 5.91786 1.75362 5.16821 2.50328C4.41855 3.25293 3.9974 4.26969 3.9974 5.32986C3.9974 5.99609 4.13064 6.79557 4.99674 7.66168C5.46311 8.12804 5.86285 8.66102 5.99609 9.32726" stroke="var(--stroke-0, #243A9F)" stroke-width="1.33247" stroke-linecap="round" stroke-linejoin="round"/>
<path id="Vector_2" d="M5.99609 11.9922H9.99349" stroke="var(--stroke-0, #243A9F)" stroke-width="1.33247" stroke-linecap="round" stroke-linejoin="round"/>
<path id="Vector_3" d="M6.66233 14.6571H9.32726" stroke="var(--stroke-0, #243A9F)" stroke-width="1.33247" stroke-linecap="round" stroke-linejoin="round"/>
</g>
<defs>
<clipPath id="clip0_185_249">
<rect width="15.9896" height="15.9896" fill="white"/>
</clipPath>
</defs>
</svg>
