<svg preserveAspectRatio="none" width="100%" height="100%" overflow="visible" style="display: block;" viewBox="0 0 32 29" fill="none" xmlns="http://www.w3.org/2000/svg">
<g id="Icon">
<path id="Vector" d="M21.3333 25.375V22.9583C21.3333 21.6765 20.7714 20.4471 19.7712 19.5407C18.771 18.6342 17.4145 18.125 16 18.125H8C6.58551 18.125 5.22896 18.6342 4.22876 19.5407C3.22857 20.4471 2.66667 21.6765 2.66667 22.9583V25.375" stroke="var(--stroke-0, #00C950)" stroke-width="1.66602" stroke-linecap="round" stroke-linejoin="round"/>
<path id="Vector_2" d="M12 13.2917C14.9455 13.2917 17.3333 11.1277 17.3333 8.45833C17.3333 5.78896 14.9455 3.625 12 3.625C9.05448 3.625 6.66667 5.78896 6.66667 8.45833C6.66667 11.1277 9.05448 13.2917 12 13.2917Z" stroke="var(--stroke-0, #00C950)" stroke-width="1.66602" stroke-linecap="round" stroke-linejoin="round"/>
<path id="Vector_3" d="M29.3333 25.375V22.9583C29.3325 21.8874 28.9391 20.8471 28.2152 20.0007C27.4912 19.1543 26.4775 18.5498 25.3333 18.2821" stroke="var(--stroke-0, #00C950)" stroke-width="1.66602" stroke-linecap="round" stroke-linejoin="round"/>
<path id="Vector_4" d="M21.3333 3.78209C22.4806 4.04829 23.4974 4.65294 24.2235 5.50071C24.9497 6.34849 25.3438 7.39117 25.3438 8.46438C25.3438 9.53759 24.9497 10.5803 24.2235 11.428C23.4974 12.2758 22.4806 12.8805 21.3333 13.1467" stroke="var(--stroke-0, #00C950)" stroke-width="1.66602" stroke-linecap="round" stroke-linejoin="round"/>
</g>
</svg>
