<svg preserveAspectRatio="none" width="100%" height="100%" overflow="visible" style="display: block;" viewBox="0 0 20 20" fill="none" xmlns="http://www.w3.org/2000/svg">
<g id="Icon">
<path id="Vector" d="M12.5 17.5V10.8333C12.5 10.6123 12.4122 10.4004 12.2559 10.2441C12.0996 10.0878 11.8877 10 11.6667 10H8.33333C8.11232 10 7.90036 10.0878 7.74408 10.2441C7.5878 10.4004 7.5 10.6123 7.5 10.8333V17.5" stroke="var(--stroke-0, white)" stroke-width="1.66667" stroke-linecap="round" stroke-linejoin="round"/>
<path id="Vector_2" d="M2.5 8.33336C2.49994 8.09091 2.55278 7.85138 2.65482 7.63145C2.75687 7.41153 2.90566 7.21652 3.09083 7.06002L8.92417 2.06086C9.22499 1.80661 9.60613 1.66712 10 1.66712C10.3939 1.66712 10.775 1.80661 11.0758 2.06086L16.9092 7.06002C17.0943 7.21652 17.2431 7.41153 17.3452 7.63145C17.4472 7.85138 17.5001 8.09091 17.5 8.33336V15.8334C17.5 16.2754 17.3244 16.6993 17.0118 17.0119C16.6993 17.3244 16.2754 17.5 15.8333 17.5H4.16667C3.72464 17.5 3.30072 17.3244 2.98816 17.0119C2.67559 16.6993 2.5 16.2754 2.5 15.8334V8.33336Z" stroke="var(--stroke-0, white)" stroke-width="1.66667" stroke-linecap="round" stroke-linejoin="round"/>
</g>
</svg>
