<svg preserveAspectRatio="none" width="100%" height="100%" overflow="visible" style="display: block;" viewBox="0 0 38 24" fill="none" xmlns="http://www.w3.org/2000/svg">
<g id="Icon">
<path id="Vector" d="M6.33332 14C6.0337 14.0007 5.73994 13.9476 5.48616 13.847C5.23239 13.7464 5.02902 13.6024 4.89969 13.4317C4.77036 13.261 4.72037 13.0706 4.75553 12.8827C4.79069 12.6948 4.90956 12.517 5.09832 12.37L20.7733 2.17004C20.8909 2.08432 21.0511 2.0264 21.2277 2.00577C21.4043 1.98515 21.5867 2.00305 21.7451 2.05654C21.9034 2.11004 22.0282 2.19594 22.0991 2.30015C22.17 2.40436 22.1826 2.52069 22.135 2.63004L19.095 8.65004C19.0053 8.80156 18.9752 8.96456 19.0073 9.12505C19.0393 9.28553 19.1324 9.43872 19.2788 9.57147C19.4251 9.70421 19.6203 9.81256 19.8475 9.8872C20.0747 9.96185 20.3272 10.0006 20.5833 10H31.6667C31.9663 9.9994 32.26 10.0525 32.5138 10.1531C32.7676 10.2537 32.971 10.3977 33.1003 10.5684C33.2296 10.7391 33.2796 10.9295 33.2444 11.1174C33.2093 11.3053 33.0904 11.4831 32.9017 11.63L17.2267 21.83C17.1091 21.9158 16.9488 21.9737 16.7723 21.9943C16.5957 22.0149 16.4133 21.997 16.2549 21.9435C16.0966 21.89 15.9717 21.8041 15.9009 21.6999C15.83 21.5957 15.8174 21.4794 15.865 21.37L18.905 15.35C18.9946 15.1985 19.0247 15.0355 18.9927 14.875C18.9607 14.7145 18.8675 14.5614 18.7212 14.4286C18.5748 14.2959 18.3797 14.1875 18.1525 14.1129C17.9253 14.0382 17.6728 13.9995 17.4167 14H6.33332Z" stroke="var(--stroke-0, #FF6900)" stroke-width="1.66602" stroke-linecap="round" stroke-linejoin="round"/>
</g>
</svg>
