<svg preserveAspectRatio="none" width="100%" height="100%" overflow="visible" style="display: block;" viewBox="0 0 20 20" fill="none" xmlns="http://www.w3.org/2000/svg">
<g id="Icon" clip-path="url(#clip0_180_102)">
<path id="Vector" d="M12.4951 11.6621C12.6617 10.8291 13.0782 10.246 13.7446 9.57959C14.5776 8.82988 14.9941 7.74697 14.9941 6.66406C14.9941 5.3385 14.4676 4.06723 13.5302 3.12991C12.5929 2.19259 11.3217 1.66602 9.99609 1.66602C8.67053 1.66602 7.39926 2.19259 6.46194 3.12991C5.52463 4.06723 4.99805 5.3385 4.99805 6.66406C4.99805 7.49707 5.16465 8.49668 6.24756 9.57959C6.83066 10.1627 7.33047 10.8291 7.49707 11.6621" stroke="var(--stroke-0, #243A9F)" stroke-width="1.66602" stroke-linecap="round" stroke-linejoin="round"/>
<path id="Vector_2" d="M7.49707 14.9941H12.4951" stroke="var(--stroke-0, #243A9F)" stroke-width="1.66602" stroke-linecap="round" stroke-linejoin="round"/>
<path id="Vector_3" d="M8.33008 18.3262H11.6621" stroke="var(--stroke-0, #243A9F)" stroke-width="1.66602" stroke-linecap="round" stroke-linejoin="round"/>
</g>
<defs>
<clipPath id="clip0_180_102">
<rect width="19.9922" height="19.9922" fill="white"/>
</clipPath>
</defs>
</svg>
