<svg preserveAspectRatio="none" width="100%" height="100%" overflow="visible" style="display: block;" viewBox="0 0 16 16" fill="none" xmlns="http://www.w3.org/2000/svg">
<g id="Icon" clip-path="url(#clip0_183_123)">
<path id="Vector" d="M14.116 4.54134C14.4685 4.18896 14.6666 3.71099 14.6666 3.21258C14.6667 2.71417 14.4688 2.23615 14.1164 1.88368C13.764 1.5312 13.286 1.33315 12.7876 1.33309C12.2892 1.33303 11.8112 1.53096 11.4587 1.88334L2.56137 10.7827C2.40658 10.937 2.29211 11.127 2.22804 11.336L1.34737 14.2373C1.33014 14.295 1.32884 14.3562 1.34361 14.4146C1.35837 14.4729 1.38865 14.5262 1.43124 14.5687C1.47382 14.6112 1.52712 14.6414 1.58548 14.6561C1.64384 14.6707 1.70508 14.6693 1.7627 14.652L4.6647 13.772C4.87348 13.7085 5.06349 13.5947 5.21804 13.4407L14.116 4.54134Z" stroke="var(--stroke-0, #243A9F)" stroke-width="1.33333" stroke-linecap="round" stroke-linejoin="round"/>
</g>
<defs>
<clipPath id="clip0_183_123">
<rect width="16" height="16" fill="white"/>
</clipPath>
</defs>
</svg>
