<svg preserveAspectRatio="none" width="100%" height="100%" overflow="visible" style="display: block;" viewBox="0 0 20 20" fill="none" xmlns="http://www.w3.org/2000/svg">
<path id="Vector" d="M1 10C1 11.78 1.52784 13.5201 2.51677 15.0001C3.50571 16.4802 4.91131 17.6337 6.55585 18.3149C8.20038 18.9961 10.01 19.1743 11.7558 18.8271C13.5016 18.4798 15.1053 17.6226 16.364 16.364C17.6226 15.1053 18.4798 13.5016 18.8271 11.7558C19.1743 10.01 18.9961 8.20039 18.3149 6.55586C17.6337 4.91132 16.4802 3.50571 15.0001 2.51678C13.5201 1.52785 11.78 1.00001 10 1.00001C7.48395 1.00947 5.06897 1.99123 3.26 3.74001L1 6.00001" stroke="var(--stroke-0, white)" stroke-width="2" stroke-linecap="round" stroke-linejoin="round"/>
</svg>
