<svg preserveAspectRatio="none" width="100%" height="100%" overflow="visible" style="display: block;" viewBox="0 0 20 20" fill="none" xmlns="http://www.w3.org/2000/svg">
<g id="Icon" clip-path="url(#clip0_103_193)">
<path id="Vector" d="M13.3281 17.4932V15.8271C13.3281 14.9434 12.9771 14.0959 12.3522 13.471C11.7273 12.8462 10.8798 12.4951 9.99609 12.4951H4.99805C4.11434 12.4951 3.26682 12.8462 2.64195 13.471C2.01707 14.0959 1.66602 14.9434 1.66602 15.8271V17.4932" stroke="var(--stroke-0, #00C950)" stroke-width="1.66602" stroke-linecap="round" stroke-linejoin="round"/>
<path id="Vector_2" d="M7.49707 9.16309C9.3373 9.16309 10.8291 7.67128 10.8291 5.83105C10.8291 3.99082 9.3373 2.49902 7.49707 2.49902C5.65684 2.49902 4.16504 3.99082 4.16504 5.83105C4.16504 7.67128 5.65684 9.16309 7.49707 9.16309Z" stroke="var(--stroke-0, #00C950)" stroke-width="1.66602" stroke-linecap="round" stroke-linejoin="round"/>
<path id="Vector_3" d="M18.3262 17.4932V15.8272C18.3256 15.0889 18.0799 14.3717 17.6276 13.7882C17.1753 13.2047 16.542 12.788 15.8271 12.6034" stroke="var(--stroke-0, #00C950)" stroke-width="1.66602" stroke-linecap="round" stroke-linejoin="round"/>
<path id="Vector_4" d="M13.3281 2.60732C14.0449 2.79083 14.6801 3.20767 15.1338 3.79211C15.5874 4.37656 15.8337 5.09537 15.8337 5.83522C15.8337 6.57508 15.5874 7.29389 15.1338 7.87833C14.6801 8.46278 14.0449 8.87962 13.3281 9.06313" stroke="var(--stroke-0, #00C950)" stroke-width="1.66602" stroke-linecap="round" stroke-linejoin="round"/>
</g>
<defs>
<clipPath id="clip0_103_193">
<rect width="19.9922" height="19.9922" fill="white"/>
</clipPath>
</defs>
</svg>
