<svg preserveAspectRatio="none" width="100%" height="100%" overflow="visible" style="display: block;" viewBox="0 0 21 21" fill="none" xmlns="http://www.w3.org/2000/svg">
<path id="Vector" d="M1.88035 12.3939C1.68283 12.3945 1.48918 12.3434 1.32188 12.2465C1.15459 12.1496 1.02052 12.0109 0.935263 11.8465C0.850002 11.6821 0.817047 11.4987 0.840226 11.3177C0.863405 11.1367 0.941766 10.9654 1.0662 10.8239L11.3996 0.999255C11.4771 0.91669 11.5828 0.860897 11.6992 0.841032C11.8156 0.821168 11.9358 0.838412 12.0402 0.889935C12.1446 0.941458 12.2269 1.0242 12.2736 1.12457C12.3203 1.22495 12.3287 1.337 12.2973 1.44233L10.2932 7.24079C10.2341 7.38674 10.2143 7.54373 10.2354 7.69831C10.2565 7.8529 10.3179 8.00045 10.4144 8.12831C10.5109 8.25617 10.6395 8.36052 10.7893 8.43242C10.9391 8.50432 11.1055 8.54161 11.2744 8.54111H18.5808C18.7784 8.54049 18.972 8.5916 19.1393 8.6885C19.3066 8.7854 19.4407 8.92412 19.5259 9.08854C19.6112 9.25295 19.6441 9.43632 19.621 9.61733C19.5978 9.79834 19.5194 9.96957 19.395 10.1111L9.06156 19.9358C8.98405 20.0183 8.87842 20.0741 8.76202 20.094C8.64561 20.1138 8.52535 20.0966 8.42096 20.0451C8.31658 19.9936 8.23428 19.9108 8.18757 19.8104C8.14086 19.7101 8.13252 19.598 8.16391 19.4927L10.168 13.6942C10.2271 13.5483 10.2469 13.3913 10.2258 13.2367C10.2047 13.0821 10.1433 12.9346 10.0468 12.8067C9.95032 12.6788 9.82167 12.5745 9.67189 12.5026C9.5221 12.4307 9.35565 12.3934 9.18682 12.3939H1.88035Z" stroke="var(--stroke-0, #FF6900)" stroke-opacity="0.3" stroke-width="1.66602" stroke-linecap="round" stroke-linejoin="round"/>
</svg>
