<svg preserveAspectRatio="none" width="100%" height="100%" overflow="visible" style="display: block;" viewBox="0 0 20 20" fill="none" xmlns="http://www.w3.org/2000/svg">
<g id="Icon" clip-path="url(#clip0_103_297)">
<path id="Vector" d="M19.8055 10.2292C19.8055 9.55156 19.7501 8.86719 19.6323 8.19531H10.2002V12.0492H15.6014C15.3773 13.2911 14.6571 14.3898 13.6055 15.0875V17.586H16.8251C18.7179 15.8445 19.8055 13.2727 19.8055 10.2292Z" fill="var(--fill-0, #4285F4)"/>
<path id="Vector_2" d="M10.2002 20.0003C12.9507 20.0003 15.2716 19.1045 16.8294 17.5863L13.6098 15.0878C12.7154 15.6979 11.5564 16.0433 10.2045 16.0433C7.54516 16.0433 5.28629 14.2835 4.4918 11.917H1.17773V14.4921C2.76977 17.6598 6.31375 20.0003 10.2002 20.0003Z" fill="var(--fill-0, #34A853)"/>
<path id="Vector_3" d="M4.48738 11.917C4.07016 10.6751 4.07016 9.32908 4.48738 8.08713V5.51172H1.17766C-0.293453 8.43672 -0.293453 11.5675 1.17766 14.4925L4.48738 11.917Z" fill="var(--fill-0, #FBBC04)"/>
<path id="Vector_4" d="M10.2002 3.95687C11.6255 3.93453 13.0034 4.47234 14.0364 5.45937L16.8936 2.60219C15.1837 0.990313 12.9337 0.10875 10.2002 0.135C6.31375 0.135 2.76977 2.47547 1.17773 5.64687L4.48746 8.22234C5.27754 5.85141 7.54074 3.95687 10.2002 3.95687Z" fill="var(--fill-0, #EA4335)"/>
</g>
<defs>
<clipPath id="clip0_103_297">
<rect width="20" height="20" fill="white"/>
</clipPath>
</defs>
</svg>
