<svg preserveAspectRatio="none" width="100%" height="100%" overflow="visible" style="display: block;" viewBox="0 0 17 19" fill="none" xmlns="http://www.w3.org/2000/svg">
<path id="Vector" d="M1.66886 10.8313C1.51122 10.8318 1.35667 10.7876 1.22316 10.7038C1.08965 10.62 0.982653 10.5 0.91461 10.3578C0.846566 10.2156 0.820266 10.0571 0.838764 9.90052C0.857262 9.74397 0.9198 9.59589 1.01911 9.47347L9.26589 0.97679C9.32775 0.905386 9.41205 0.857134 9.50495 0.839954C9.59784 0.822774 9.69382 0.837688 9.77713 0.882247C9.86044 0.926806 9.92612 0.998362 9.9634 1.08517C10.0007 1.17198 10.0073 1.26888 9.98227 1.35997L8.3829 6.37468C8.33574 6.5009 8.3199 6.63668 8.33674 6.77036C8.35359 6.90405 8.40261 7.03166 8.4796 7.14224C8.5566 7.25281 8.65927 7.34306 8.77881 7.40524C8.89835 7.46743 9.03118 7.49968 9.16593 7.49924H14.997C15.1546 7.4987 15.3092 7.5429 15.4427 7.62671C15.5762 7.71051 15.6832 7.83048 15.7512 7.97268C15.8193 8.11487 15.8456 8.27345 15.8271 8.43C15.8086 8.58654 15.746 8.73463 15.6467 8.85704L7.39995 17.3537C7.33809 17.4251 7.25379 17.4734 7.16089 17.4906C7.06799 17.5077 6.97201 17.4928 6.88871 17.4483C6.8054 17.4037 6.73972 17.3322 6.70244 17.2453C6.66517 17.1585 6.65851 17.0616 6.68356 16.9705L8.28294 11.9558C8.3301 11.8296 8.34594 11.6938 8.3291 11.5601C8.31225 11.4265 8.26323 11.2989 8.18623 11.1883C8.10924 11.0777 8.00657 10.9874 7.88703 10.9253C7.76749 10.8631 7.63465 10.8308 7.49991 10.8313H1.66886Z" stroke="var(--stroke-0, #FF6900)" stroke-width="1.66602" stroke-linecap="round" stroke-linejoin="round"/>
</svg>
