<svg preserveAspectRatio="none" width="100%" height="100%" overflow="visible" style="display: block;" viewBox="0 0 20 20" fill="none" xmlns="http://www.w3.org/2000/svg">
<g id="Icon" clip-path="url(#clip0_103_447)">
<path id="Vector" d="M12.1133 18.0717C12.145 18.1506 12.2 18.2179 12.2711 18.2646C12.3421 18.3113 12.4257 18.3352 12.5107 18.333C12.5957 18.3309 12.678 18.3027 12.7465 18.2524C12.8151 18.2021 12.8666 18.1321 12.8942 18.0517L18.3108 2.21833C18.3375 2.14449 18.3426 2.06458 18.3255 1.98796C18.3084 1.91133 18.2699 1.84116 18.2143 1.78564C18.1588 1.73013 18.0887 1.69158 18.012 1.67449C17.9354 1.6574 17.8555 1.66249 17.7817 1.68916L1.94832 7.10583C1.8679 7.13341 1.79784 7.18493 1.74755 7.25347C1.69726 7.32202 1.66913 7.40431 1.66696 7.48929C1.66478 7.57428 1.68865 7.65791 1.73537 7.72893C1.78209 7.79996 1.84942 7.855 1.92832 7.88666L8.53666 10.5367C8.74556 10.6203 8.93537 10.7454 9.09463 10.9044C9.25389 11.0633 9.37931 11.2529 9.46332 11.4617L12.1133 18.0717Z" stroke="var(--stroke-0, white)" stroke-width="1.66667" stroke-linecap="round" stroke-linejoin="round"/>
<path id="Vector_2" d="M18.2116 1.78914L9.09495 10.905" stroke="var(--stroke-0, white)" stroke-width="1.66667" stroke-linecap="round" stroke-linejoin="round"/>
</g>
<defs>
<clipPath id="clip0_103_447">
<rect width="20" height="20" fill="white"/>
</clipPath>
</defs>
</svg>
