<svg preserveAspectRatio="none" width="100%" height="100%" overflow="visible" style="display: block;" viewBox="0 0 40 40" fill="none" xmlns="http://www.w3.org/2000/svg">
<g id="Icon">
<path id="Vector" d="M24.1667 6.66667H15.8333L11.6667 11.6667H6.66667C5.78261 11.6667 4.93477 12.0179 4.30964 12.643C3.68452 13.2681 3.33333 14.1159 3.33333 15V30C3.33333 30.8841 3.68452 31.7319 4.30964 32.357C4.93477 32.9821 5.78261 33.3333 6.66667 33.3333H33.3333C34.2174 33.3333 35.0652 32.9821 35.6904 32.357C36.3155 31.7319 36.6667 30.8841 36.6667 30V15C36.6667 14.1159 36.3155 13.2681 35.6904 12.643C35.0652 12.0179 34.2174 11.6667 33.3333 11.6667H28.3333L24.1667 6.66667Z" stroke="var(--stroke-0, #243A9F)" stroke-width="3.33333" stroke-linecap="round" stroke-linejoin="round"/>
<path id="Vector_2" d="M20 26.6667C22.7614 26.6667 25 24.4281 25 21.6667C25 18.9052 22.7614 16.6667 20 16.6667C17.2386 16.6667 15 18.9052 15 21.6667C15 24.4281 17.2386 26.6667 20 26.6667Z" stroke="var(--stroke-0, #243A9F)" stroke-width="3.33333" stroke-linecap="round" stroke-linejoin="round"/>
</g>
</svg>
