<svg preserveAspectRatio="none" width="100%" height="100%" overflow="visible" style="display: block;" viewBox="0 0 224 224" fill="none" xmlns="http://www.w3.org/2000/svg">
<g id="StudentMenu" filter="url(#filter0_dd_103_97)">
<mask id="path-1-inside-1_103_97" fill="white">
<path d="M12 26C12 12.7452 22.7452 2 36 2H188C201.255 2 212 12.7452 212 26V178C212 191.255 201.255 202 188 202H36C22.7452 202 12 191.255 12 178V26Z"/>
</mask>
<path d="M12 26C12 12.7452 22.7452 2 36 2H188C201.255 2 212 12.7452 212 26V178C212 191.255 201.255 202 188 202H36C22.7452 202 12 191.255 12 178V26Z" fill="var(--fill-0, #FFF4ED)" shape-rendering="crispEdges"/>
<path d="M36 2V2.74074H188V2V1.25926H36V2ZM212 26H211.259V178H212H212.741V26H212ZM188 202V201.259H36V202V202.741H188V202ZM12 178H12.7407V26H12H11.2593V178H12ZM36 202V201.259C23.1543 201.259 12.7407 190.846 12.7407 178H12H11.2593C11.2593 191.664 22.3361 202.741 36 202.741V202ZM212 178H211.259C211.259 190.846 200.846 201.259 188 201.259V202V202.741C201.664 202.741 212.741 191.664 212.741 178H212ZM188 2V2.74074C200.846 2.74074 211.259 13.1543 211.259 26H212H212.741C212.741 12.3361 201.664 1.25926 188 1.25926V2ZM36 2V1.25926C22.3361 1.25926 11.2593 12.3361 11.2593 26H12H12.7407C12.7407 13.1543 23.1543 2.74074 36 2.74074V2Z" fill="var(--stroke-0, #F3E8FF)" fill-opacity="0.5" mask="url(#path-1-inside-1_103_97)"/>
<ellipse id="Ellipse 5" cx="111" cy="104.5" rx="81" ry="82.5" fill="var(--fill-0, #243A9F)"/>
<g id="ashiato_white 5">
</g>
</g>
<defs>
<filter id="filter0_dd_103_97" x="0" y="0" width="224" height="224" filterUnits="userSpaceOnUse" color-interpolation-filters="sRGB">
<feFlood flood-opacity="0" result="BackgroundImageFix"/>
<feColorMatrix in="SourceAlpha" type="matrix" values="0 0 0 0 0 0 0 0 0 0 0 0 0 0 0 0 0 0 127 0" result="hardAlpha"/>
<feMorphology radius="4" operator="erode" in="SourceAlpha" result="effect1_dropShadow_103_97"/>
<feOffset dy="4"/>
<feGaussianBlur stdDeviation="3"/>
<feComposite in2="hardAlpha" operator="out"/>
<feColorMatrix type="matrix" values="0 0 0 0 0 0 0 0 0 0 0 0 0 0 0 0 0 0 0.1 0"/>
<feBlend mode="normal" in2="BackgroundImageFix" result="effect1_dropShadow_103_97"/>
<feColorMatrix in="SourceAlpha" type="matrix" values="0 0 0 0 0 0 0 0 0 0 0 0 0 0 0 0 0 0 127 0" result="hardAlpha"/>
<feMorphology radius="3" operator="erode" in="SourceAlpha" result="effect2_dropShadow_103_97"/>
<feOffset dy="10"/>
<feGaussianBlur stdDeviation="7.5"/>
<feComposite in2="hardAlpha" operator="out"/>
<feColorMatrix type="matrix" values="0 0 0 0 0 0 0 0 0 0 0 0 0 0 0 0 0 0 0.1 0"/>
<feBlend mode="normal" in2="effect1_dropShadow_103_97" result="effect2_dropShadow_103_97"/>
<feBlend mode="normal" in="SourceGraphic" in2="effect2_dropShadow_103_97" result="shape"/>
</filter>
</defs>
</svg>
