<svg preserveAspectRatio="none" width="100%" height="100%" overflow="visible" style="display: block;" viewBox="0 0 10 10" fill="none" xmlns="http://www.w3.org/2000/svg">
<g id="Group">
<path id="Vector" d="M9.02009 4.51005C9.02009 5.10231 8.90344 5.68878 8.67678 6.23597C8.45013 6.78315 8.11793 7.28033 7.69913 7.69913C7.28033 8.11793 6.78315 8.45013 6.23597 8.67678C5.68878 8.90344 5.10231 9.02009 4.51005 9.02009C3.91778 9.02009 3.33131 8.90344 2.78413 8.67678C2.23694 8.45013 1.73976 8.11793 1.32096 7.69913C0.902165 7.28033 0.569958 6.78315 0.343307 6.23597C0.116656 5.68878 -8.82547e-09 5.10231 0 4.51005C-8.82548e-09 3.91778 0.116656 3.33131 0.343307 2.78413C0.569958 2.23694 0.902165 1.73976 1.32096 1.32096C1.73976 0.902165 2.23694 0.569958 2.78413 0.343307C3.33131 0.116656 3.91778 0 4.51005 0C5.10231 0 5.68878 0.116656 6.23597 0.343307C6.78315 0.569958 7.28033 0.902165 7.69913 1.32096C8.11793 1.73976 8.45013 2.23694 8.67678 2.78413C8.90344 3.33131 9.02009 3.91778 9.02009 4.51005Z" fill="var(--fill-0, #22C55E)"/>
</g>
</svg>
