<svg preserveAspectRatio="none" width="100%" height="100%" overflow="visible" style="display: block;" viewBox="0 0 15 15" fill="none" xmlns="http://www.w3.org/2000/svg">
<g id="Icon">
<path id="Vector" d="M10 12.6052V11.4047C10 10.7679 9.73661 10.1572 9.26777 9.70693C8.79893 9.25666 8.16305 9.0037 7.5 9.0037H3.75C3.08696 9.0037 2.45108 9.25666 1.98223 9.70693C1.51339 10.1572 1.25 10.7679 1.25 11.4047V12.6052" stroke="var(--stroke-0, #00C950)" stroke-width="1.66602" stroke-linecap="round" stroke-linejoin="round"/>
<path id="Vector_2" d="M5.625 6.60271C7.00572 6.60271 8.12501 5.52776 8.12501 4.20173C8.12501 2.8757 7.00572 1.80074 5.625 1.80074C4.24429 1.80074 3.125 2.8757 3.125 4.20173C3.125 5.52776 4.24429 6.60271 5.625 6.60271Z" stroke="var(--stroke-0, #00C950)" stroke-width="1.66602" stroke-linecap="round" stroke-linejoin="round"/>
<path id="Vector_3" d="M13.75 12.6052V11.4047C13.7496 10.8727 13.5652 10.3559 13.2259 9.93548C12.8865 9.51503 12.4113 9.21473 11.875 9.08174" stroke="var(--stroke-0, #00C950)" stroke-width="1.66602" stroke-linecap="round" stroke-linejoin="round"/>
<path id="Vector_4" d="M10 1.87878C10.5378 2.01101 11.0144 2.31137 11.3548 2.73251C11.6952 3.15365 11.8799 3.67161 11.8799 4.20473C11.8799 4.73785 11.6952 5.25581 11.3548 5.67695C11.0144 6.09809 10.5378 6.39845 10 6.53069" stroke="var(--stroke-0, #00C950)" stroke-width="1.66602" stroke-linecap="round" stroke-linejoin="round"/>
</g>
</svg>
