<svg preserveAspectRatio="none" width="100%" height="100%" overflow="visible" style="display: block;" viewBox="0 0 20 20" fill="none" xmlns="http://www.w3.org/2000/svg">
<g id="Icon" clip-path="url(#clip0_103_190)">
<path id="Vector" d="M3.33202 11.6621C3.17439 11.6627 3.01984 11.6185 2.88633 11.5347C2.75281 11.4509 2.64582 11.3309 2.57778 11.1887C2.50973 11.0465 2.48343 10.8879 2.50193 10.7314C2.52043 10.5748 2.58297 10.4268 2.68228 10.3043L10.9291 1.80766C10.9909 1.73626 11.0752 1.688 11.1681 1.67083C11.261 1.65365 11.357 1.66856 11.4403 1.71312C11.5236 1.75768 11.5893 1.82923 11.6266 1.91604C11.6638 2.00285 11.6705 2.09975 11.6454 2.19084L10.0461 7.20555C9.99891 7.33177 9.98307 7.46755 9.99991 7.60124C10.0168 7.73492 10.0658 7.86253 10.1428 7.97311C10.2198 8.08369 10.3224 8.17394 10.442 8.23612C10.5615 8.2983 10.6944 8.33055 10.8291 8.33011H16.6601C16.8178 8.32957 16.9723 8.37378 17.1058 8.45758C17.2394 8.54139 17.3464 8.66135 17.4144 8.80355C17.4824 8.94574 17.5087 9.10432 17.4902 9.26087C17.4717 9.41741 17.4092 9.5655 17.3099 9.68792L9.06312 18.1846C9.00126 18.256 8.91696 18.3042 8.82406 18.3214C8.73116 18.3386 8.63518 18.3237 8.55188 18.2791C8.46857 18.2346 8.40289 18.163 8.36561 18.0762C8.32833 17.9894 8.32168 17.8925 8.34673 17.8014L9.94611 12.7867C9.99327 12.6605 10.0091 12.5247 9.99226 12.391C9.97542 12.2573 9.9264 12.1297 9.8494 12.0191C9.77241 11.9086 9.66974 11.8183 9.5502 11.7561C9.43066 11.694 9.29782 11.6617 9.16308 11.6621H3.33202Z" stroke="var(--stroke-0, #FF6900)" stroke-width="1.66602" stroke-linecap="round" stroke-linejoin="round"/>
</g>
<defs>
<clipPath id="clip0_103_190">
<rect width="19.9922" height="19.9922" fill="white"/>
</clipPath>
</defs>
</svg>
