<svg preserveAspectRatio="none" width="100%" height="100%" overflow="visible" style="display: block;" viewBox="0 0 16 16" fill="none" xmlns="http://www.w3.org/2000/svg">
<g id="Icon" clip-path="url(#clip0_34_48)">
<path id="Vector" d="M14.1126 4.54023C14.4649 4.18794 14.6629 3.71008 14.663 3.21179C14.6631 2.71351 14.4652 2.2356 14.1129 1.88322C13.7606 1.53083 13.2827 1.33283 12.7844 1.33276C12.2862 1.3327 11.8083 1.53059 11.4559 1.88288L2.56071 10.78C2.40596 10.9343 2.29151 11.1243 2.22745 11.3332L1.347 14.2339C1.32978 14.2915 1.32847 14.3527 1.34324 14.4111C1.358 14.4694 1.38827 14.5226 1.43085 14.5651C1.47342 14.6076 1.5267 14.6378 1.58505 14.6525C1.64339 14.6672 1.70462 14.6658 1.76223 14.6484L4.66353 13.7686C4.87225 13.7052 5.06221 13.5914 5.21672 13.4374L14.1126 4.54023Z" stroke="var(--stroke-0, #9810FA)" stroke-opacity="0.8" stroke-width="1.33301" stroke-linecap="round" stroke-linejoin="round"/>
</g>
<defs>
<clipPath id="clip0_34_48">
<rect width="15.9961" height="15.9961" fill="white"/>
</clipPath>
</defs>
</svg>
