<svg preserveAspectRatio="none" width="100%" height="100%" overflow="visible" style="display: block;" viewBox="0 0 20 20" fill="none" xmlns="http://www.w3.org/2000/svg">
<g id="Icon" clip-path="url(#clip0_34_44)">
<path id="Vector" d="M12.1133 18.0717C12.145 18.1506 12.2 18.2179 12.2711 18.2647C12.3421 18.3114 12.4257 18.3353 12.5107 18.3331C12.5957 18.3309 12.678 18.3028 12.7465 18.2525C12.8151 18.2022 12.8666 18.1321 12.8942 18.0517L18.3108 2.21838C18.3375 2.14454 18.3426 2.06463 18.3255 1.98801C18.3084 1.91138 18.2699 1.84121 18.2143 1.78569C18.1588 1.73018 18.0887 1.69163 18.012 1.67454C17.9354 1.65745 17.8555 1.66254 17.7817 1.68921L1.94832 7.10588C1.8679 7.13346 1.79784 7.18498 1.74755 7.25352C1.69726 7.32207 1.66913 7.40436 1.66696 7.48935C1.66478 7.57434 1.68865 7.65796 1.73537 7.72899C1.78209 7.80002 1.84942 7.85505 1.92832 7.88671L8.53666 10.5367C8.74556 10.6204 8.93537 10.7454 9.09463 10.9044C9.25389 11.0634 9.37931 11.253 9.46332 11.4617L12.1133 18.0717Z" stroke="var(--stroke-0, white)" stroke-width="1.66667" stroke-linecap="round" stroke-linejoin="round"/>
<path id="Vector_2" d="M18.2117 1.78914L9.095 10.905" stroke="var(--stroke-0, white)" stroke-width="1.66667" stroke-linecap="round" stroke-linejoin="round"/>
</g>
<defs>
<clipPath id="clip0_34_44">
<rect width="20" height="20" fill="white"/>
</clipPath>
</defs>
</svg>
